<?xml version="1.0" encoding="UTF-8" standalone="no"?>
<svg
   width="26.458332mm"
   height="14.5268mm"
   viewBox="0 0 26.458332 14.5268"
   version="1.1"
   id="svg36"
   fill="currentColor"
   xmlns="http://www.w3.org/2000/svg"
   xmlns:svg="http://www.w3.org/2000/svg">
  <defs
     id="defs33" />
  <g
     id="layer1"
     transform="translate(-34.218395,-85.820745)">
    <g
       id="SvgjsG1547"
       featurekey="odWo6G-0"
       transform="matrix(0.29398147,0,0,0.29398147,32.748488,78.385072)"
       fill="currentColor">
      <path
         d="m 38.481,69.952 -1.83,3.17 H 63.35 l -1.83,-3.17 H 38.481 M 63.35,26.878 H 36.651 l 1.83,3.17 h 23.038 l 1.831,-3.17 M 40.311,33.218 30.622,50 40.311,66.782 H 59.689 L 69.378,50 59.689,33.218 H 40.311 M 35.736,74.707 21.471,50 35.735,25.293 H 64.264 L 78.529,50 64.265,74.707 H 35.736"
         fill="currentColor"
         style="clip-rule:evenodd;fill-rule:evenodd"
         id="path3" />
      <polyline
         points="77.614,35.736 82.189,27.811 95,50 82.189,72.189 77.614,64.264 85.85,50 77.614,35.736 "
         style="clip-rule:evenodd;fill-rule:evenodd"
         id="polyline5" />
      <polyline
         points="17.811,72.189 5,50 17.811,27.811 22.386,35.736 14.151,50 22.386,64.264 17.811,72.189 "
         style="clip-rule:evenodd;fill-rule:evenodd"
         id="polyline7" />
    </g>
  </g>
</svg>
